<?xml version="1.0" standalone="no"?>
<!DOCTYPE svg PUBLIC "-//W3C//DTD SVG 1.1//EN" "http://www.w3.org/Graphics/SVG/1.1/DTD/svg11.dtd">
<svg width="100%" height="100%" viewBox="0 0 700 550" version="1.1" xmlns="http://www.w3.org/2000/svg" xmlns:xlink="http://www.w3.org/1999/xlink" xml:space="preserve" style="fill-rule:evenodd;clip-rule:evenodd;stroke-linecap:round;stroke-linejoin:round;stroke-miterlimit:1.41421;">
    <g id="Layer1">
        <ellipse cx="281.739" cy="263.032" rx="238.213" ry="239.721" style="fill:rgb(235,235,235);"/>
        <ellipse cx="332.77" cy="337.286" rx="138.159" ry="136.893" style="fill:rgb(192,192,192);"/>
        <path d="M272.29,279.739C272.818,281.347 274.282,283.435 277.546,283.435C280.69,283.435 282.634,281.371 282.634,278.731C282.634,273.355 274.738,274.147 274.738,270.307C274.738,268.915 275.722,267.787 277.57,267.787C279.418,267.787 280.33,269.059 280.714,269.899L282.346,269.227C281.938,268.099 280.594,266.011 277.594,266.011C274.618,266.011 272.794,267.907 272.794,270.307C272.794,275.731 280.666,274.651 280.666,278.851C280.666,280.603 279.394,281.635 277.618,281.635C275.41,281.635 274.402,280.315 273.946,279.019L272.29,279.739Z" style="fill:rgb(118,118,118);fill-rule:nonzero;"/>
        <path d="M296.482,283.435C300.466,283.435 302.746,280.867 302.746,277.075L302.746,266.323L300.826,266.323L300.826,277.051C300.826,279.859 299.314,281.635 296.482,281.635C293.65,281.635 292.162,279.859 292.162,277.075L292.162,266.323L290.218,266.323L290.218,277.099C290.218,280.915 292.45,283.435 296.482,283.435Z" style="fill:rgb(118,118,118);fill-rule:nonzero;"/>
        <path d="M311.242,283.123L316.378,283.123C319.258,283.123 321.442,281.371 321.442,278.347C321.442,276.307 320.314,274.891 318.706,274.315C320.026,273.595 320.866,272.299 320.866,270.619C320.866,267.955 319.066,266.323 315.874,266.323L311.242,266.323L311.242,283.123ZM313.186,273.595L313.186,268.051L316.09,268.051C317.89,268.051 318.874,269.107 318.874,270.763C318.874,272.467 317.77,273.595 316.09,273.595L313.186,273.595ZM313.186,281.419L313.186,275.227L316.018,275.227C317.962,275.227 319.426,276.091 319.426,278.299C319.426,280.459 318.034,281.419 316.042,281.419L313.186,281.419Z" style="fill:rgb(118,118,118);fill-rule:nonzero;"/>
        <path d="M327.73,283.027C327.946,283.099 328.738,283.267 329.746,283.267C332.122,283.267 333.586,281.923 333.586,279.331L333.586,266.323L331.642,266.323L331.642,279.067C331.642,280.771 330.85,281.515 329.53,281.515C328.738,281.515 327.946,281.299 327.946,281.299L327.73,283.027Z" style="fill:rgb(118,118,118);fill-rule:nonzero;"/>
        <path d="M342.178,283.123L350.41,283.123L350.41,281.371L344.122,281.371L344.122,275.443L349.378,275.443L349.378,273.691L344.122,273.691L344.122,268.099L350.146,268.099L350.146,266.323L342.178,266.323L342.178,283.123Z" style="fill:rgb(118,118,118);fill-rule:nonzero;"/>
        <path d="M370.738,279.811C370.162,280.291 368.506,281.611 365.962,281.611C362.074,281.611 359.41,278.635 359.41,274.723C359.41,270.811 362.194,267.835 365.914,267.835C368.146,267.835 369.802,268.963 370.45,269.491L371.074,267.763C370.186,267.043 368.386,266.011 365.866,266.011C361.114,266.011 357.394,269.779 357.394,274.723C357.394,279.691 360.994,283.435 365.914,283.435C368.746,283.435 370.69,282.091 371.338,281.515L370.738,279.811Z" style="fill:rgb(118,118,118);fill-rule:nonzero;"/>
        <path d="M382.042,283.123L383.986,283.123L383.986,268.099L388.498,268.099L388.498,266.323L377.506,266.323L377.506,268.099L382.042,268.099L382.042,283.123Z" style="fill:rgb(118,118,118);fill-rule:nonzero;"/>
        <path d="M192.879,131.179L194.823,131.179L194.823,122.731L201.783,131.179L204.159,131.179L196.815,122.419L203.871,114.379L201.519,114.379L194.823,122.107L194.823,114.379L192.879,114.379L192.879,131.179Z" style="fill:rgb(179,179,179);fill-rule:nonzero;"/>
        <path d="M211.215,131.179L213.159,131.179L213.159,117.499L222.423,131.179L224.343,131.179L224.343,114.379L222.423,114.379L222.423,128.107L213.159,114.379L211.215,114.379L211.215,131.179Z" style="fill:rgb(179,179,179);fill-rule:nonzero;"/>
        <path d="M231.951,122.779C231.951,127.771 235.623,131.491 240.495,131.491C245.391,131.491 249.087,127.723 249.087,122.779C249.087,117.883 245.415,114.067 240.519,114.067C235.647,114.067 231.951,117.835 231.951,122.779ZM233.967,122.779C233.967,118.843 236.799,115.891 240.519,115.891C244.239,115.891 247.071,118.843 247.071,122.779C247.071,126.763 244.239,129.667 240.519,129.667C236.799,129.667 233.967,126.763 233.967,122.779Z" style="fill:rgb(179,179,179);fill-rule:nonzero;"/>
        <path d="M269.967,131.179L272.151,131.179L276.927,114.379L274.863,114.379L270.975,128.707L266.847,114.379L264.927,114.379L260.799,128.707L256.935,114.379L254.847,114.379L259.647,131.179L261.807,131.179L265.887,117.235L269.967,131.179Z" style="fill:rgb(179,179,179);fill-rule:nonzero;"/>
        <path d="M283.911,131.179L292.143,131.179L292.143,129.427L285.855,129.427L285.855,114.379L283.911,114.379L283.911,131.179Z" style="fill:rgb(179,179,179);fill-rule:nonzero;"/>
        <path d="M299.487,131.179L307.719,131.179L307.719,129.427L301.431,129.427L301.431,123.499L306.687,123.499L306.687,121.747L301.431,121.747L301.431,116.155L307.455,116.155L307.455,114.379L299.487,114.379L299.487,131.179Z" style="fill:rgb(179,179,179);fill-rule:nonzero;"/>
        <path d="M315.663,131.179L319.119,131.179C324.735,131.179 328.119,128.347 328.119,122.779C328.119,117.523 324.855,114.379 319.119,114.379L315.663,114.379L315.663,131.179ZM317.607,129.451L317.607,116.131L319.503,116.131C323.535,116.131 326.127,118.579 326.127,122.779C326.127,127.171 323.535,129.451 319.503,129.451L317.607,129.451Z" style="fill:rgb(179,179,179);fill-rule:nonzero;"/>
        <path d="M343.287,114.067C338.367,114.067 334.791,117.883 334.791,122.803C334.791,127.915 338.463,131.491 343.239,131.491C346.095,131.491 348.279,130.627 350.103,128.779L350.103,122.707L344.487,122.707L344.487,124.411L348.231,124.411L348.231,127.939C347.703,128.467 346.119,129.691 343.311,129.691C339.567,129.691 336.831,126.859 336.831,122.803C336.831,118.867 339.471,115.891 343.335,115.891C345.975,115.891 347.463,117.067 348.231,117.811L349.479,116.515C348.615,115.627 346.623,114.067 343.287,114.067Z" style="fill:rgb(179,179,179);fill-rule:nonzero;"/>
        <path d="M358.215,131.179L366.447,131.179L366.447,129.427L360.159,129.427L360.159,123.499L365.415,123.499L365.415,121.747L360.159,121.747L360.159,116.155L366.183,116.155L366.183,114.379L358.215,114.379L358.215,131.179Z" style="fill:rgb(179,179,179);fill-rule:nonzero;"/>
        <path d="M484.197,244.317L484.197,409.849" style="fill:none;stroke-width:6px;stroke:rgb(137,137,137);"/>
        <path d="M484.197,323.782L563.005,298.542" style="fill:none;stroke-width:6px;stroke:rgb(137,137,137);"/>
        <g transform="matrix(1,0,0,1,-133.376,-30.1168)">
            <path d="M716.02,332.134L723.447,332.134C727.611,332.134 730.77,329.601 730.77,325.228C730.77,322.278 729.138,320.231 726.813,319.398C728.722,318.357 729.937,316.482 729.937,314.053C729.937,310.201 727.334,307.841 722.718,307.841L716.02,307.841L716.02,332.134ZM718.831,318.357L718.831,310.34L723.031,310.34C725.633,310.34 727.056,311.867 727.056,314.261C727.056,316.725 725.46,318.357 723.031,318.357L718.831,318.357ZM718.831,329.67L718.831,320.716L722.926,320.716C725.737,320.716 727.854,321.966 727.854,325.159C727.854,328.282 725.842,329.67 722.961,329.67L718.831,329.67Z" style="fill:black;fill-rule:nonzero;"/>
            <path d="M734.518,332.134L737.259,332.134L737.259,314.088L734.518,314.088L734.518,332.134ZM733.997,309.438C733.997,310.513 734.83,311.346 735.871,311.346C736.947,311.346 737.78,310.513 737.78,309.438C737.78,308.396 736.947,307.563 735.871,307.563C734.83,307.563 733.997,308.396 733.997,309.438Z" style="fill:black;fill-rule:nonzero;"/>
            <path d="M742.951,336.993C744.513,337.964 747.046,338.797 749.406,338.797C754.611,338.797 758.464,336.472 758.464,329.635L758.464,314.088L755.826,314.088L755.826,317.003C755.236,316.031 753.189,313.637 749.441,313.637C744.339,313.637 740.764,317.593 740.764,323.146C740.764,328.664 744.304,332.585 749.475,332.585C753.432,332.585 755.306,329.948 755.722,329.288L755.722,330.885C755.722,334.91 752.807,336.333 749.371,336.333C746.768,336.333 744.617,335.258 743.923,334.841L742.951,336.993ZM755.826,323.146C755.826,327.033 753.432,330.087 749.718,330.087C746.248,330.087 743.541,327.345 743.541,323.146C743.541,319.016 746.144,316.135 749.649,316.135C753.084,316.135 755.826,318.773 755.826,323.146Z" style="fill:black;fill-rule:nonzero;"/>
            <path d="M716.02,366.838L718.831,366.838L718.831,356.67L722.683,356.67C726.952,356.67 729.937,353.928 729.937,349.556C729.937,345.148 727.091,342.545 722.683,342.545L716.02,342.545L716.02,366.838ZM718.831,354.171L718.831,345.044L722.441,345.044C725.356,345.044 727.056,346.779 727.056,349.556C727.056,352.367 725.356,354.171 722.441,354.171L718.831,354.171Z" style="fill:black;fill-rule:nonzero;"/>
            <path d="M733.268,366.838L736.01,366.838L736.01,348.792L733.268,348.792L733.268,366.838ZM732.748,344.142C732.748,345.218 733.581,346.051 734.622,346.051C735.698,346.051 736.531,345.218 736.531,344.142C736.531,343.101 735.698,342.268 734.622,342.268C733.581,342.268 732.748,343.101 732.748,344.142Z" style="fill:black;fill-rule:nonzero;"/>
            <path d="M755.097,350.805C754.16,349.903 752.043,348.341 748.746,348.341C743.506,348.341 739.515,352.471 739.515,357.815C739.515,363.16 743.402,367.29 748.781,367.29C752.147,367.29 754.369,365.485 755.097,364.722L754.264,362.396C753.536,363.125 751.731,364.791 748.885,364.791C745.172,364.791 742.361,361.702 742.361,357.815C742.361,353.894 745.033,350.874 748.816,350.874C751.557,350.874 753.432,352.401 754.16,353.165L755.097,350.805Z" style="fill:black;fill-rule:nonzero;"/>
            <path d="M758.707,348.792L756.59,348.792L756.59,351.117L758.707,351.117L758.707,360.661C758.707,364.722 760.268,367.081 763.878,367.081C764.815,367.081 765.543,366.977 765.543,366.977L765.543,364.548C765.543,364.548 765.127,364.583 764.78,364.583C762.42,364.583 761.448,363.784 761.448,360.418L761.448,351.117L765.405,351.117L765.405,348.792L761.448,348.792L761.448,345.009L758.707,345.009L758.707,348.792Z" style="fill:black;fill-rule:nonzero;"/>
            <path d="M774.948,367.29C777.412,367.29 779.46,365.867 780.293,364.236L780.293,366.838L783.034,366.838L783.034,348.792L780.258,348.792L780.258,359.759C780.258,362.743 778.349,364.791 775.573,364.791C773.144,364.791 771.304,363.056 771.304,360.175L771.304,348.792L768.563,348.792L768.563,360.071C768.563,364.166 770.749,367.29 774.948,367.29Z" style="fill:black;fill-rule:nonzero;"/>
            <path d="M795.667,348.341C792.925,348.341 790.912,350.007 790.288,351.812L790.288,348.792L787.581,348.792L787.581,366.838L790.322,366.838L790.322,358.197C790.322,354.345 791.537,351.083 795.667,351.083L795.667,348.341Z" style="fill:black;fill-rule:nonzero;"/>
            <path d="M796.847,357.885C796.847,363.437 800.629,367.29 806.113,367.29C810.208,367.29 812.568,365.069 813.574,363.368L811.769,362.049C810.902,363.264 809.201,364.86 806.147,364.86C802.399,364.86 799.692,362.431 799.658,358.405L814.129,358.405C814.164,358.058 814.164,357.677 814.164,357.572C814.164,352.159 810.902,348.341 805.592,348.341C800.803,348.341 796.847,352.124 796.847,357.885ZM799.797,356.358C800.005,352.957 802.642,350.701 805.592,350.701C808.577,350.701 811.18,352.61 811.353,356.358L799.797,356.358Z" style="fill:black;fill-rule:nonzero;"/>
        </g>
        <path d="M265.637,311.476C265.637,309.325 263.893,307.581 261.742,307.581L253.951,307.581C251.8,307.581 250.056,309.325 250.056,311.476L250.056,352.52C250.056,354.672 251.8,356.416 253.951,356.416L261.742,356.416C263.893,356.416 265.637,354.672 265.637,352.52L265.637,311.476Z" style="fill:rgb(102,204,255);"/>
        <path d="M295.975,311.476C295.975,309.325 294.231,307.581 292.08,307.581L284.289,307.581C282.137,307.581 280.393,309.325 280.393,311.476L280.393,352.52C280.393,354.672 282.137,356.416 284.289,356.416L292.08,356.416C294.231,356.416 295.975,354.672 295.975,352.52L295.975,311.476Z" style="fill:rgb(102,204,255);"/>
        <path d="M325.998,311.476C325.998,309.325 324.254,307.581 322.103,307.581L314.312,307.581C312.161,307.581 310.417,309.325 310.417,311.476L310.417,352.52C310.417,354.672 312.161,356.416 314.312,356.416L322.103,356.416C324.254,356.416 325.998,354.672 325.998,352.52L325.998,311.476Z" style="fill:rgb(102,204,255);"/>
        <path d="M364.2,311.476C364.2,309.325 362.456,307.581 360.304,307.581L352.513,307.581C350.362,307.581 348.618,309.325 348.618,311.476L348.618,352.52C348.618,354.672 350.362,356.416 352.513,356.416L360.304,356.416C362.456,356.416 364.2,354.672 364.2,352.52L364.2,311.476Z" style="fill:rgb(102,204,255);"/>
        <path d="M364.2,371.202C364.2,369.051 362.456,367.307 360.304,367.307L352.513,367.307C350.362,367.307 348.618,369.051 348.618,371.202L348.618,412.246C348.618,414.398 350.362,416.142 352.513,416.142L360.304,416.142C362.456,416.142 364.2,414.398 364.2,412.246L364.2,371.202Z" style="fill:rgb(102,204,255);"/>
        <path d="M265.794,371.202C265.794,369.051 264.05,367.307 261.899,367.307L254.108,367.307C251.957,367.307 250.213,369.051 250.213,371.202L250.213,412.246C250.213,414.398 251.957,416.142 254.108,416.142L261.899,416.142C264.05,416.142 265.794,414.398 265.794,412.246L265.794,371.202Z" style="fill:rgb(102,204,255);"/>
        <path d="M394.537,311.476C394.537,309.325 392.793,307.581 390.642,307.581L382.851,307.581C380.7,307.581 378.956,309.325 378.956,311.476L378.956,352.52C378.956,354.672 380.7,356.416 382.851,356.416L390.642,356.416C392.793,356.416 394.537,354.672 394.537,352.52L394.537,311.476Z" style="fill:rgb(102,204,255);"/>
        <path d="M394.537,371.202C394.537,369.051 392.793,367.307 390.642,367.307L382.851,367.307C380.7,367.307 378.956,369.051 378.956,371.202L378.956,412.246C378.956,414.398 380.7,416.142 382.851,416.142L390.642,416.142C392.793,416.142 394.537,414.398 394.537,412.246L394.537,371.202Z" style="fill:rgb(102,204,255);"/>
        <path d="M296.132,371.202C296.132,369.051 294.388,367.307 292.237,367.307L284.446,367.307C282.294,367.307 280.55,369.051 280.55,371.202L280.55,412.246C280.55,414.398 282.294,416.142 284.446,416.142L292.237,416.142C294.388,416.142 296.132,414.398 296.132,412.246L296.132,371.202Z" style="fill:rgb(102,204,255);"/>
        <path d="M424.561,311.476C424.561,309.325 422.817,307.581 420.665,307.581L412.875,307.581C410.723,307.581 408.979,309.325 408.979,311.476L408.979,352.52C408.979,354.672 410.723,356.416 412.875,356.416L420.665,356.416C422.817,356.416 424.561,354.672 424.561,352.52L424.561,311.476Z" style="fill:rgb(102,204,255);"/>
        <path d="M424.561,371.202C424.561,369.051 422.817,367.307 420.665,367.307L412.875,367.307C410.723,367.307 408.979,369.051 408.979,371.202L408.979,412.246C408.979,414.398 410.723,416.142 412.875,416.142L420.665,416.142C422.817,416.142 424.561,414.398 424.561,412.246L424.561,371.202Z" style="fill:rgb(102,204,255);"/>
        <path d="M326.156,371.202C326.156,369.051 324.411,367.307 322.26,367.307L314.469,367.307C312.318,367.307 310.574,369.051 310.574,371.202L310.574,412.246C310.574,414.398 312.318,416.142 314.469,416.142L322.26,416.142C324.411,416.142 326.156,414.398 326.156,412.246L326.156,371.202Z" style="fill:rgb(102,204,255);"/>
        <path d="M281.739,436.026L394.537,436.026L470.929,502.753" style="fill:none;stroke-width:6px;stroke:rgb(102,204,255);"/>
        <path d="M504.576,505.645C503.871,506.233 501.845,507.848 498.732,507.848C493.974,507.848 490.715,504.206 490.715,499.419C490.715,494.633 494.121,490.991 498.673,490.991C501.404,490.991 503.43,492.371 504.223,493.017L504.987,490.903C503.9,490.022 501.698,488.759 498.614,488.759C492.8,488.759 488.248,493.37 488.248,499.419C488.248,505.498 492.653,510.08 498.673,510.08C502.138,510.08 504.517,508.435 505.31,507.73L504.576,505.645Z" style="fill:black;fill-rule:nonzero;"/>
        <path d="M515.207,494.045C513.122,494.045 511.418,495.249 510.684,496.629L510.684,488.465L508.364,488.465L508.364,509.698L510.684,509.698L510.684,500.418C510.684,497.892 512.329,496.16 514.678,496.16C516.734,496.16 518.29,497.628 518.29,500.065L518.29,509.698L520.61,509.698L520.61,500.154C520.61,496.688 518.76,494.045 515.207,494.045Z" style="fill:black;fill-rule:nonzero;"/>
        <path d="M529.714,510.08C531.799,510.08 533.532,508.876 534.236,507.495L534.236,509.698L536.556,509.698L536.556,494.427L534.207,494.427L534.207,503.707C534.207,506.233 532.592,507.965 530.243,507.965C528.187,507.965 526.63,506.497 526.63,504.059L526.63,494.427L524.31,494.427L524.31,503.971C524.31,507.437 526.161,510.08 529.714,510.08Z" style="fill:black;fill-rule:nonzero;"/>
        <path d="M547.246,494.045C545.132,494.045 543.428,495.249 542.694,496.629L542.694,494.427L540.404,494.427L540.404,509.698L542.724,509.698L542.724,500.418C542.724,497.892 544.339,496.16 546.688,496.16C548.773,496.16 550.3,497.628 550.3,500.065L550.3,509.698L552.62,509.698L552.62,500.154C552.62,496.688 550.799,494.045 547.246,494.045Z" style="fill:black;fill-rule:nonzero;"/>
        <path d="M556.497,509.698L558.817,509.698L558.817,501.563L565.366,509.698L568.361,509.698L561.401,501.269L567.979,494.427L565.042,494.427L558.817,500.976L558.817,488.465L556.497,488.465L556.497,509.698Z" style="fill:black;fill-rule:nonzero;"/>
        <path d="M569.389,506.82C570.064,508.259 571.503,510.08 574.704,510.08C577.67,510.08 579.902,508.259 579.902,505.557C579.902,500.242 572.208,501.534 572.208,498.098C572.208,496.776 573.324,495.983 574.734,495.983C576.701,495.983 577.494,497.129 577.905,497.951L579.609,496.982C579.197,495.837 577.729,494.045 574.88,494.045C572.12,494.045 569.976,495.602 569.976,498.186C569.976,503.355 577.641,502.15 577.641,505.675C577.641,507.231 576.349,508.112 574.822,508.112C572.737,508.112 571.65,506.967 571.004,505.763L569.389,506.82Z" style="fill:black;fill-rule:nonzero;"/>
    </g>
</svg>
